<?xml version="1.0" encoding="UTF-8"?>
<svg id="Layer_1" xmlns="http://www.w3.org/2000/svg" viewBox="0 0 150 150">
    <defs>
        <style>.cls-1{fill:#211f1d;stroke:#fff;stroke-miterlimit:10;stroke-width:14px;}
            #flower { cursor: pointer; }
            #flower:hover { fill: #E06C5D !important; }
            #flower:hover { transform: scale(1.1); }
        </style>
    </defs><path id="flower" class="cls-1" d="M89.7,48.77h0c2.04,4.13,5.97,6.99,10.53,7.65h0c11.47,1.67,16.05,15.76,7.75,23.85h0c-3.3,3.21-4.8,7.84-4.02,12.38h0c1.96,11.42-10.03,20.13-20.29,14.74h0c-4.07-2.14-8.94-2.14-13.01,0h0c-10.26,5.39-22.25-3.32-20.29-14.74h0c.78-4.54-.73-9.16-4.02-12.38h0c-8.3-8.09-3.72-22.18,7.75-23.85h0c4.55-.66,8.49-3.52,10.53-7.65h0c5.13-10.39,19.95-10.39,25.08,0Z"/>
</svg>